<svg width="300" height="500" viewBox="0 0 300 500" fill="none" xmlns="http://www.w3.org/2000/svg">
<rect width="300" height="500" fill="#1E1E1E"/>
<rect width="300" height="500" fill="#1D35D3"/>
<path d="M80.8899 170L86.6854 135.091H110.515L109.356 141.943H93.9638L92.8047 149.102H106.68L105.521 155.972H91.6456L89.3274 170H80.8899ZM123.201 135.091L117.406 170H108.968L114.763 135.091H123.201ZM122.702 170L128.498 135.091H142.918C145.532 135.091 147.714 135.562 149.464 136.506C151.214 137.437 152.458 138.778 153.197 140.528C153.935 142.267 154.106 144.33 153.708 146.716C153.322 149.125 152.458 151.176 151.117 152.869C149.788 154.551 148.072 155.835 145.969 156.722C143.879 157.608 141.504 158.051 138.844 158.051H129.725L130.85 151.403H138.401C139.663 151.403 140.754 151.239 141.674 150.909C142.594 150.568 143.327 150.057 143.873 149.375C144.43 148.682 144.799 147.795 144.981 146.716C145.151 145.636 145.072 144.744 144.742 144.04C144.424 143.324 143.862 142.79 143.055 142.438C142.259 142.074 141.237 141.892 139.987 141.892H135.827L131.14 170H122.702ZM144.998 154.045L151.049 170H141.844L135.981 154.045H144.998ZM177.751 145.625C177.842 144.341 177.501 143.347 176.728 142.642C175.967 141.938 174.762 141.585 173.114 141.585C172.023 141.585 171.092 141.727 170.319 142.011C169.546 142.284 168.938 142.67 168.495 143.17C168.052 143.659 167.773 144.227 167.66 144.875C167.558 145.386 167.586 145.841 167.745 146.239C167.904 146.636 168.183 146.989 168.58 147.295C168.989 147.602 169.495 147.869 170.097 148.097C170.711 148.324 171.398 148.523 172.16 148.693L175.023 149.375C176.683 149.75 178.12 150.25 179.336 150.875C180.563 151.489 181.558 152.233 182.319 153.108C183.08 153.972 183.603 154.966 183.887 156.091C184.171 157.216 184.194 158.477 183.955 159.875C183.592 162.08 182.722 163.972 181.347 165.551C179.984 167.131 178.2 168.341 175.995 169.182C173.802 170.023 171.251 170.443 168.342 170.443C165.433 170.443 162.961 170.006 160.927 169.131C158.904 168.244 157.438 166.909 156.529 165.125C155.62 163.341 155.376 161.091 155.796 158.375H163.859C163.734 159.5 163.876 160.438 164.285 161.188C164.705 161.938 165.353 162.506 166.228 162.892C167.103 163.278 168.16 163.472 169.398 163.472C170.535 163.472 171.529 163.318 172.381 163.011C173.245 162.705 173.933 162.278 174.444 161.733C174.967 161.187 175.285 160.562 175.398 159.858C175.512 159.21 175.404 158.648 175.075 158.17C174.756 157.693 174.211 157.278 173.438 156.926C172.677 156.574 171.677 156.256 170.438 155.972L166.944 155.119C164.058 154.415 161.87 153.29 160.381 151.744C158.904 150.199 158.381 148.102 158.813 145.455C159.177 143.284 160.075 141.386 161.506 139.761C162.95 138.136 164.773 136.875 166.978 135.977C169.194 135.068 171.631 134.614 174.29 134.614C176.995 134.614 179.268 135.074 181.109 135.994C182.961 136.903 184.296 138.187 185.114 139.847C185.944 141.494 186.183 143.42 185.83 145.625H177.751ZM190.04 141.943L191.2 135.091H220.705L219.546 141.943H208.961L204.325 170H196.006L200.643 141.943H190.04Z" fill="white"/>
<path d="M77.4634 323L69.1396 293.909H75.8583L80.6737 314.122H80.9151L86.2276 293.909H91.9805L97.2788 314.165H97.5344L102.35 293.909H109.069L100.745 323H94.7504L89.2106 303.98H88.9833L83.4577 323H77.4634ZM118.511 293.909V323H112.36V293.909H118.511ZM147.904 293.909V323H142.591L129.935 304.69H129.722V323H123.571V293.909H128.969L141.526 312.205H141.782V293.909H147.904ZM177.318 293.909V323H172.005L159.349 304.69H159.136V323H152.985V293.909H158.383L170.94 312.205H171.196V293.909H177.318ZM182.4 323V293.909H202.002V298.98H188.55V305.912H200.993V310.983H188.55V317.929H202.059V323H182.4ZM206.892 323V293.909H218.369C220.566 293.909 222.441 294.302 223.994 295.088C225.556 295.865 226.745 296.968 227.559 298.398C228.383 299.818 228.795 301.49 228.795 303.412C228.795 305.344 228.378 307.006 227.545 308.398C226.712 309.78 225.504 310.841 223.923 311.58C222.351 312.318 220.448 312.688 218.213 312.688H210.528V307.744H217.218C218.393 307.744 219.368 307.583 220.145 307.261C220.921 306.939 221.499 306.456 221.877 305.812C222.266 305.169 222.46 304.368 222.46 303.412C222.46 302.446 222.266 301.632 221.877 300.969C221.499 300.306 220.916 299.804 220.13 299.463C219.354 299.113 218.374 298.938 217.19 298.938H213.042V323H206.892ZM222.602 309.761L229.832 323H223.042L215.968 309.761H222.602Z" fill="white"/>
<path d="M63.1794 209V184.273H72.9351C74.8025 184.273 76.3963 184.607 77.7164 185.275C79.0445 185.935 80.0547 186.873 80.7469 188.088C81.4472 189.295 81.7973 190.716 81.7973 192.35C81.7973 193.992 81.4432 195.405 80.7348 196.588C80.0265 197.763 79.0002 198.665 77.656 199.293C76.3198 199.92 74.7019 200.234 72.8023 200.234H66.2703V196.033H71.9571C72.9552 196.033 73.7843 195.896 74.4443 195.622C75.1044 195.348 75.5954 194.938 75.9173 194.391C76.2474 193.843 76.4124 193.163 76.4124 192.35C76.4124 191.529 76.2474 190.837 75.9173 190.273C75.5954 189.71 75.1003 189.283 74.4323 188.994C73.7722 188.696 72.9391 188.547 71.933 188.547H68.4074V209H63.1794ZM76.5331 197.747L82.6787 209H76.9074L70.8946 197.747H76.5331ZM108.215 196.636C108.215 199.333 107.704 201.627 106.682 203.518C105.667 205.41 104.283 206.855 102.528 207.853C100.781 208.843 98.8174 209.338 96.6361 209.338C94.4387 209.338 92.4666 208.839 90.7199 207.841C88.9732 206.843 87.5928 205.398 86.5786 203.506C85.5644 201.615 85.0573 199.325 85.0573 196.636C85.0573 193.94 85.5644 191.646 86.5786 189.754C87.5928 187.863 88.9732 186.422 90.7199 185.432C92.4666 184.434 94.4387 183.935 96.6361 183.935C98.8174 183.935 100.781 184.434 102.528 185.432C104.283 186.422 105.667 187.863 106.682 189.754C107.704 191.646 108.215 193.94 108.215 196.636ZM102.915 196.636C102.915 194.89 102.653 193.417 102.13 192.217C101.615 191.018 100.886 190.108 99.9443 189.489C99.0026 188.869 97.8998 188.559 96.6361 188.559C95.3724 188.559 94.2696 188.869 93.3279 189.489C92.3861 190.108 91.6536 191.018 91.1304 192.217C90.6153 193.417 90.3577 194.89 90.3577 196.636C90.3577 198.383 90.6153 199.856 91.1304 201.055C91.6536 202.255 92.3861 203.164 93.3279 203.784C94.2696 204.404 95.3724 204.714 96.6361 204.714C97.8998 204.714 99.0026 204.404 99.9443 203.784C100.886 203.164 101.615 202.255 102.13 201.055C102.653 199.856 102.915 198.383 102.915 196.636ZM112.088 209V184.273H121.988C123.807 184.273 125.325 184.542 126.54 185.082C127.755 185.621 128.669 186.37 129.281 187.327C129.893 188.277 130.198 189.372 130.198 190.612C130.198 191.577 130.005 192.427 129.619 193.159C129.233 193.884 128.701 194.479 128.025 194.946C127.357 195.405 126.592 195.731 125.731 195.924V196.165C126.673 196.206 127.554 196.471 128.375 196.962C129.204 197.453 129.876 198.142 130.392 199.027C130.907 199.904 131.164 200.951 131.164 202.166C131.164 203.478 130.838 204.649 130.186 205.68C129.542 206.702 128.589 207.511 127.325 208.107C126.061 208.702 124.504 209 122.652 209H112.088ZM117.316 204.726H121.578C123.035 204.726 124.097 204.448 124.765 203.893C125.433 203.329 125.767 202.581 125.767 201.647C125.767 200.963 125.602 200.359 125.272 199.836C124.942 199.313 124.471 198.902 123.86 198.604C123.256 198.307 122.536 198.158 121.698 198.158H117.316V204.726ZM117.316 194.62H121.191C121.908 194.62 122.544 194.495 123.099 194.246C123.662 193.988 124.105 193.626 124.427 193.159C124.757 192.692 124.922 192.133 124.922 191.481C124.922 190.587 124.604 189.867 123.968 189.32C123.34 188.772 122.447 188.499 121.288 188.499H117.316V194.62ZM157.289 196.636C157.289 199.333 156.778 201.627 155.756 203.518C154.742 205.41 153.357 206.855 151.602 207.853C149.856 208.843 147.892 209.338 145.71 209.338C143.513 209.338 141.541 208.839 139.794 207.841C138.047 206.843 136.667 205.398 135.653 203.506C134.639 201.615 134.131 199.325 134.131 196.636C134.131 193.94 134.639 191.646 135.653 189.754C136.667 187.863 138.047 186.422 139.794 185.432C141.541 184.434 143.513 183.935 145.71 183.935C147.892 183.935 149.856 184.434 151.602 185.432C153.357 186.422 154.742 187.863 155.756 189.754C156.778 191.646 157.289 193.94 157.289 196.636ZM151.989 196.636C151.989 194.89 151.727 193.417 151.204 192.217C150.689 191.018 149.96 190.108 149.019 189.489C148.077 188.869 146.974 188.559 145.71 188.559C144.447 188.559 143.344 188.869 142.402 189.489C141.46 190.108 140.728 191.018 140.205 192.217C139.689 193.417 139.432 194.89 139.432 196.636C139.432 198.383 139.689 199.856 140.205 201.055C140.728 202.255 141.46 203.164 142.402 203.784C143.344 204.404 144.447 204.714 145.71 204.714C146.974 204.714 148.077 204.404 149.019 203.784C149.96 203.164 150.689 202.255 151.204 201.055C151.727 199.856 151.989 198.383 151.989 196.636ZM159.091 188.583V184.273H179.399V188.583H171.829V209H166.661V188.583H159.091ZM187.972 184.273V209H182.744V184.273H187.972ZM214.091 192.93H208.802C208.706 192.246 208.508 191.638 208.211 191.107C207.913 190.567 207.531 190.108 207.064 189.73C206.597 189.352 206.057 189.062 205.446 188.861C204.842 188.66 204.186 188.559 203.478 188.559C202.198 188.559 201.083 188.877 200.133 189.513C199.183 190.141 198.447 191.058 197.924 192.266C197.401 193.465 197.139 194.922 197.139 196.636C197.139 198.399 197.401 199.88 197.924 201.08C198.455 202.279 199.196 203.184 200.145 203.796C201.095 204.408 202.194 204.714 203.441 204.714C204.142 204.714 204.79 204.621 205.385 204.436C205.989 204.251 206.524 203.981 206.991 203.627C207.458 203.265 207.844 202.826 208.15 202.311C208.464 201.796 208.682 201.208 208.802 200.548L214.091 200.572C213.954 201.707 213.612 202.802 213.064 203.857C212.525 204.903 211.797 205.841 210.879 206.67C209.969 207.491 208.883 208.143 207.619 208.626C206.363 209.101 204.943 209.338 203.357 209.338C201.151 209.338 199.179 208.839 197.441 207.841C195.71 206.843 194.342 205.398 193.336 203.506C192.338 201.615 191.839 199.325 191.839 196.636C191.839 193.94 192.346 191.646 193.36 189.754C194.374 187.863 195.75 186.422 197.489 185.432C199.228 184.434 201.184 183.935 203.357 183.935C204.79 183.935 206.118 184.136 207.341 184.538C208.573 184.941 209.664 185.528 210.613 186.301C211.563 187.066 212.336 188.004 212.932 189.114C213.535 190.225 213.922 191.497 214.091 192.93ZM231.254 191.384C231.157 190.41 230.743 189.654 230.01 189.114C229.278 188.575 228.283 188.305 227.028 188.305C226.175 188.305 225.454 188.426 224.867 188.668C224.279 188.901 223.828 189.227 223.514 189.646C223.208 190.064 223.055 190.539 223.055 191.07C223.039 191.513 223.132 191.899 223.333 192.229C223.542 192.559 223.828 192.845 224.19 193.087C224.553 193.32 224.971 193.525 225.446 193.702C225.921 193.871 226.428 194.016 226.967 194.137L229.189 194.668C230.268 194.91 231.258 195.232 232.159 195.634C233.061 196.037 233.841 196.532 234.502 197.119C235.162 197.707 235.673 198.399 236.035 199.196C236.405 199.993 236.594 200.906 236.602 201.937C236.594 203.45 236.208 204.762 235.443 205.873C234.687 206.976 233.592 207.833 232.159 208.445C230.734 209.048 229.016 209.35 227.004 209.35C225.007 209.35 223.269 209.044 221.788 208.433C220.315 207.821 219.164 206.915 218.335 205.716C217.514 204.509 217.083 203.015 217.043 201.237H222.102C222.158 202.066 222.395 202.758 222.814 203.313C223.241 203.861 223.808 204.275 224.516 204.557C225.233 204.83 226.042 204.967 226.943 204.967C227.829 204.967 228.597 204.839 229.249 204.581C229.909 204.323 230.421 203.965 230.783 203.506C231.145 203.048 231.326 202.52 231.326 201.925C231.326 201.369 231.161 200.902 230.831 200.524C230.509 200.146 230.034 199.824 229.406 199.558C228.787 199.293 228.026 199.051 227.124 198.834L224.432 198.158C222.347 197.651 220.701 196.858 219.494 195.779C218.286 194.701 217.687 193.248 217.695 191.42C217.687 189.923 218.085 188.615 218.89 187.496C219.703 186.378 220.818 185.504 222.234 184.876C223.651 184.249 225.261 183.935 227.064 183.935C228.899 183.935 230.501 184.249 231.869 184.876C233.246 185.504 234.316 186.378 235.081 187.496C235.846 188.615 236.24 189.911 236.264 191.384H231.254ZM52.3748 233.93H47.0865C46.9899 233.246 46.7927 232.638 46.4949 232.107C46.197 231.567 45.8147 231.108 45.3478 230.73C44.881 230.352 44.3417 230.062 43.7299 229.861C43.1262 229.66 42.4702 229.559 41.7619 229.559C40.4821 229.559 39.3672 229.877 38.4174 230.513C37.4676 231.141 36.7311 232.058 36.2079 233.266C35.6847 234.465 35.4231 235.922 35.4231 237.636C35.4231 239.399 35.6847 240.88 36.2079 242.08C36.7392 243.279 37.4797 244.184 38.4295 244.796C39.3793 245.408 40.478 245.714 41.7257 245.714C42.426 245.714 43.0739 245.621 43.6696 245.436C44.2733 245.251 44.8085 244.981 45.2754 244.627C45.7422 244.265 46.1286 243.826 46.4345 243.311C46.7484 242.796 46.9657 242.208 47.0865 241.548L52.3748 241.572C52.238 242.707 51.8959 243.802 51.3485 244.857C50.8092 245.903 50.0808 246.841 49.1632 247.67C48.2536 248.491 47.167 249.143 45.9032 249.626C44.6476 250.101 43.2269 250.338 41.6412 250.338C39.4357 250.338 37.4636 249.839 35.725 248.841C33.9944 247.843 32.626 246.398 31.6199 244.506C30.6217 242.615 30.1227 240.325 30.1227 237.636C30.1227 234.94 30.6298 232.646 31.644 230.754C32.6582 228.863 34.0346 227.422 35.7733 226.432C37.5119 225.434 39.4679 224.935 41.6412 224.935C43.0739 224.935 44.402 225.136 45.6255 225.538C46.8571 225.941 47.9477 226.528 48.8976 227.301C49.8474 228.066 50.6201 229.004 51.2157 230.114C51.8194 231.225 52.2058 232.497 52.3748 233.93ZM78.8468 237.636C78.8468 240.333 78.3356 242.627 77.3134 244.518C76.2992 246.41 74.9147 247.855 73.16 248.853C71.4133 249.843 69.4493 250.338 67.2679 250.338C65.0705 250.338 63.0984 249.839 61.3517 248.841C59.6051 247.843 58.2246 246.398 57.2104 244.506C56.1962 242.615 55.6891 240.325 55.6891 237.636C55.6891 234.94 56.1962 232.646 57.2104 230.754C58.2246 228.863 59.6051 227.422 61.3517 226.432C63.0984 225.434 65.0705 224.935 67.2679 224.935C69.4493 224.935 71.4133 225.434 73.16 226.432C74.9147 227.422 76.2992 228.863 77.3134 230.754C78.3356 232.646 78.8468 234.94 78.8468 237.636ZM73.5463 237.636C73.5463 235.89 73.2847 234.417 72.7615 233.217C72.2464 232.018 71.5179 231.108 70.5762 230.489C69.6344 229.869 68.5317 229.559 67.2679 229.559C66.0042 229.559 64.9015 229.869 63.9597 230.489C63.0179 231.108 62.2855 232.018 61.7623 233.217C61.2471 234.417 60.9895 235.89 60.9895 237.636C60.9895 239.383 61.2471 240.856 61.7623 242.055C62.2855 243.255 63.0179 244.164 63.9597 244.784C64.9015 245.404 66.0042 245.714 67.2679 245.714C68.5317 245.714 69.6344 245.404 70.5762 244.784C71.5179 244.164 72.2464 243.255 72.7615 242.055C73.2847 240.856 73.5463 239.383 73.5463 237.636ZM82.7195 225.273H89.1669L95.9766 241.886H96.2663L103.076 225.273H109.523V250H104.452V233.906H104.247L97.848 249.879H94.3949L87.9957 233.845H87.7905V250H82.7195V225.273ZM113.831 250V225.273H123.586C125.462 225.273 127.06 225.631 128.38 226.347C129.7 227.056 130.706 228.042 131.398 229.305C132.099 230.561 132.449 232.01 132.449 233.652C132.449 235.294 132.095 236.743 131.386 237.999C130.678 239.254 129.652 240.232 128.307 240.933C126.971 241.633 125.353 241.983 123.454 241.983H117.236V237.793H122.608C123.615 237.793 124.444 237.62 125.096 237.274C125.756 236.92 126.247 236.433 126.569 235.813C126.899 235.185 127.064 234.465 127.064 233.652C127.064 232.831 126.899 232.115 126.569 231.503C126.247 230.883 125.756 230.404 125.096 230.066C124.436 229.72 123.599 229.547 122.584 229.547H119.059V250H113.831ZM135.844 250V225.273H152.506V229.583H141.072V235.475H151.649V239.786H141.072V245.69H152.555V250H135.844ZM155.721 229.583V225.273H176.029V229.583H168.459V250H163.291V229.583H155.721ZM184.602 225.273V250H179.374V225.273H184.602ZM187.961 229.583V225.273H208.27V229.583H200.699V250H195.532V229.583H187.961ZM216.842 225.273V250H211.614V225.273H216.842ZM243.866 237.636C243.866 240.333 243.355 242.627 242.333 244.518C241.319 246.41 239.934 247.855 238.18 248.853C236.433 249.843 234.469 250.338 232.287 250.338C230.09 250.338 228.118 249.839 226.371 248.841C224.625 247.843 223.244 246.398 222.23 244.506C221.216 242.615 220.709 240.325 220.709 237.636C220.709 234.94 221.216 232.646 222.23 230.754C223.244 228.863 224.625 227.422 226.371 226.432C228.118 225.434 230.09 224.935 232.287 224.935C234.469 224.935 236.433 225.434 238.18 226.432C239.934 227.422 241.319 228.863 242.333 230.754C243.355 232.646 243.866 234.94 243.866 237.636ZM238.566 237.636C238.566 235.89 238.304 234.417 237.781 233.217C237.266 232.018 236.537 231.108 235.596 230.489C234.654 229.869 233.551 229.559 232.287 229.559C231.024 229.559 229.921 229.869 228.979 230.489C228.037 231.108 227.305 232.018 226.782 233.217C226.267 234.417 226.009 235.89 226.009 237.636C226.009 239.383 226.267 240.856 226.782 242.055C227.305 243.255 228.037 244.164 228.979 244.784C229.921 245.404 231.024 245.714 232.287 245.714C233.551 245.714 234.654 245.404 235.596 244.784C236.537 244.164 237.266 243.255 237.781 242.055C238.304 240.856 238.566 239.383 238.566 237.636ZM268.422 225.273V250H263.906L253.148 234.437H252.967V250H247.739V225.273H252.327L263 240.824H263.218V225.273H268.422Z" fill="white"/>
<path d="M58.017 383.545L55.1193 401H51.9318L46.179 390.014H46.0426L44.2102 401H40.5199L43.4176 383.545H46.6562L52.3835 394.523H52.5284L54.3438 383.545H58.017ZM58.1683 401L61.0661 383.545H72.8274L72.3161 386.588H64.245L63.5632 390.747H71.0291L70.5178 393.79H63.0518L62.37 397.957H70.4751L69.9638 401H58.1683ZM72.8636 401L75.7614 383.545H87.3182L86.8068 386.588H78.9403L78.2585 390.747H85.358L84.8466 393.79H77.7472L76.554 401H72.8636ZM93.4908 383.545L90.593 401H86.9027L89.8004 383.545H93.4908ZM93.6293 401L96.527 383.545H103.413C104.732 383.545 105.817 383.778 106.669 384.244C107.527 384.71 108.129 385.372 108.476 386.23C108.828 387.082 108.911 388.088 108.723 389.247C108.53 390.406 108.112 391.401 107.47 392.23C106.834 393.06 106.004 393.699 104.982 394.148C103.964 394.591 102.786 394.812 101.445 394.812H96.8338L97.3452 391.847H101.351C102.055 391.847 102.658 391.75 103.158 391.557C103.658 391.364 104.053 391.074 104.342 390.688C104.638 390.301 104.831 389.821 104.922 389.247C105.018 388.662 104.984 388.173 104.82 387.781C104.655 387.384 104.357 387.082 103.925 386.878C103.493 386.668 102.925 386.562 102.22 386.562H99.7315L97.3196 401H93.6293ZM104.368 393.057L107.393 401H103.32L100.388 393.057H104.368ZM121.034 388.616C121.063 387.906 120.855 387.358 120.412 386.972C119.974 386.585 119.313 386.392 118.426 386.392C117.824 386.392 117.301 386.477 116.858 386.648C116.415 386.812 116.06 387.043 115.793 387.338C115.531 387.628 115.369 387.963 115.307 388.344C115.244 388.656 115.264 388.929 115.366 389.162C115.474 389.395 115.642 389.597 115.869 389.767C116.102 389.932 116.378 390.077 116.696 390.202C117.014 390.321 117.352 390.423 117.71 390.509L119.21 390.884C119.943 391.054 120.602 391.281 121.188 391.565C121.778 391.849 122.273 392.199 122.67 392.614C123.074 393.028 123.358 393.517 123.523 394.08C123.688 394.642 123.71 395.287 123.591 396.014C123.409 397.082 122.986 398.009 122.321 398.793C121.656 399.571 120.784 400.176 119.705 400.608C118.625 401.034 117.375 401.247 115.955 401.247C114.545 401.247 113.355 401.031 112.384 400.599C111.412 400.168 110.705 399.528 110.261 398.682C109.824 397.83 109.693 396.776 109.869 395.52H113.44C113.378 396.105 113.463 396.594 113.696 396.986C113.935 397.372 114.29 397.665 114.761 397.864C115.233 398.057 115.787 398.153 116.423 398.153C117.054 398.153 117.614 398.062 118.102 397.881C118.597 397.699 118.997 397.446 119.304 397.122C119.611 396.798 119.798 396.426 119.866 396.006C119.935 395.614 119.875 395.284 119.688 395.017C119.5 394.75 119.199 394.523 118.784 394.335C118.375 394.142 117.866 393.972 117.259 393.824L115.435 393.347C114.026 392.989 112.96 392.429 112.239 391.668C111.517 390.906 111.259 389.881 111.463 388.591C111.645 387.534 112.085 386.611 112.784 385.821C113.489 385.026 114.375 384.409 115.443 383.972C116.517 383.528 117.69 383.307 118.963 383.307C120.259 383.307 121.352 383.531 122.244 383.98C123.136 384.423 123.787 385.043 124.196 385.838C124.605 386.634 124.73 387.56 124.571 388.616H121.034ZM126.968 386.588L127.479 383.545H141.815L141.303 386.588H135.96L133.573 401H129.925L132.312 386.588H126.968ZM154.111 401H147.923V383.545H154.162C155.918 383.545 157.429 383.895 158.696 384.594C159.963 385.287 160.938 386.284 161.619 387.585C162.307 388.886 162.651 390.443 162.651 392.256C162.651 394.074 162.307 395.636 161.619 396.943C160.938 398.25 159.957 399.253 158.679 399.952C157.406 400.651 155.884 401 154.111 401ZM151.614 397.838H153.957C155.048 397.838 155.966 397.645 156.71 397.259C157.46 396.866 158.023 396.261 158.398 395.443C158.778 394.619 158.969 393.557 158.969 392.256C158.969 390.966 158.778 389.912 158.398 389.094C158.023 388.276 157.463 387.673 156.719 387.287C155.974 386.901 155.057 386.707 153.966 386.707H151.614V397.838ZM169.075 383.545V401H165.384V383.545H169.075ZM181.58 388.565C181.511 387.878 181.219 387.344 180.702 386.963C180.185 386.582 179.483 386.392 178.597 386.392C177.994 386.392 177.486 386.477 177.071 386.648C176.656 386.812 176.338 387.043 176.116 387.338C175.901 387.634 175.793 387.969 175.793 388.344C175.781 388.656 175.847 388.929 175.989 389.162C176.136 389.395 176.338 389.597 176.594 389.767C176.849 389.932 177.145 390.077 177.48 390.202C177.815 390.321 178.173 390.423 178.554 390.509L180.122 390.884C180.884 391.054 181.582 391.281 182.219 391.565C182.855 391.849 183.406 392.199 183.872 392.614C184.338 393.028 184.699 393.517 184.955 394.08C185.216 394.642 185.349 395.287 185.355 396.014C185.349 397.082 185.077 398.009 184.537 398.793C184.003 399.571 183.23 400.176 182.219 400.608C181.213 401.034 180 401.247 178.58 401.247C177.17 401.247 175.943 401.031 174.898 400.599C173.858 400.168 173.045 399.528 172.46 398.682C171.881 397.83 171.577 396.776 171.548 395.52H175.119C175.159 396.105 175.327 396.594 175.622 396.986C175.923 397.372 176.324 397.665 176.824 397.864C177.33 398.057 177.901 398.153 178.537 398.153C179.162 398.153 179.705 398.062 180.165 397.881C180.631 397.699 180.991 397.446 181.247 397.122C181.503 396.798 181.631 396.426 181.631 396.006C181.631 395.614 181.514 395.284 181.281 395.017C181.054 394.75 180.719 394.523 180.276 394.335C179.838 394.148 179.301 393.977 178.665 393.824L176.764 393.347C175.293 392.989 174.131 392.429 173.278 391.668C172.426 390.906 172.003 389.881 172.009 388.591C172.003 387.534 172.284 386.611 172.852 385.821C173.426 385.031 174.213 384.415 175.213 383.972C176.213 383.528 177.349 383.307 178.622 383.307C179.918 383.307 181.048 383.528 182.014 383.972C182.986 384.415 183.741 385.031 184.281 385.821C184.821 386.611 185.099 387.526 185.116 388.565H181.58ZM187.173 386.588V383.545H201.508V386.588H196.164V401H192.516V386.588H187.173ZM203.869 401V383.545H210.755C212.073 383.545 213.198 383.781 214.13 384.253C215.067 384.719 215.781 385.381 216.269 386.239C216.763 387.091 217.011 388.094 217.011 389.247C217.011 390.406 216.761 391.403 216.261 392.239C215.761 393.068 215.036 393.705 214.087 394.148C213.144 394.591 212.002 394.812 210.661 394.812H206.05V391.847H210.065C210.769 391.847 211.354 391.75 211.82 391.557C212.286 391.364 212.633 391.074 212.86 390.688C213.093 390.301 213.21 389.821 213.21 389.247C213.21 388.668 213.093 388.179 212.86 387.781C212.633 387.384 212.283 387.082 211.812 386.878C211.346 386.668 210.758 386.562 210.048 386.562H207.559V401H203.869ZM213.295 393.057L217.633 401H213.559L209.315 393.057H213.295ZM223.309 383.545V401H219.619V383.545H223.309ZM241.746 389.656H238.013C237.945 389.173 237.805 388.744 237.595 388.369C237.385 387.989 237.115 387.665 236.786 387.398C236.456 387.131 236.075 386.926 235.643 386.784C235.217 386.642 234.754 386.571 234.254 386.571C233.351 386.571 232.564 386.795 231.893 387.244C231.223 387.687 230.703 388.335 230.334 389.188C229.964 390.034 229.78 391.062 229.78 392.273C229.78 393.517 229.964 394.562 230.334 395.409C230.709 396.256 231.232 396.895 231.902 397.327C232.572 397.759 233.348 397.974 234.229 397.974C234.723 397.974 235.18 397.909 235.601 397.778C236.027 397.648 236.405 397.457 236.734 397.207C237.064 396.952 237.337 396.642 237.553 396.278C237.774 395.915 237.928 395.5 238.013 395.034L241.746 395.051C241.649 395.852 241.408 396.625 241.021 397.369C240.641 398.108 240.126 398.77 239.479 399.355C238.837 399.935 238.07 400.395 237.178 400.736C236.291 401.071 235.288 401.239 234.169 401.239C232.612 401.239 231.22 400.886 229.993 400.182C228.771 399.477 227.805 398.457 227.095 397.122C226.391 395.787 226.038 394.17 226.038 392.273C226.038 390.369 226.396 388.75 227.112 387.415C227.828 386.08 228.8 385.062 230.027 384.364C231.254 383.659 232.635 383.307 234.169 383.307C235.18 383.307 236.118 383.449 236.982 383.733C237.851 384.017 238.621 384.432 239.291 384.977C239.962 385.517 240.507 386.179 240.928 386.963C241.354 387.747 241.626 388.645 241.746 389.656ZM243.727 386.588V383.545H258.062V386.588H252.719V401H249.071V386.588H243.727ZM84.185 430V412.545H87.8754V419.747H95.3668V412.545H99.0487V430H95.3668V422.79H87.8754V430H84.185ZM105.1 430H101.145L107.171 412.545H111.926L117.944 430H113.989L109.617 416.534H109.48L105.1 430ZM104.853 423.139H114.194V426.02H104.853V423.139ZM120.044 430V412.545H126.931C128.249 412.545 129.374 412.781 130.306 413.253C131.243 413.719 131.956 414.381 132.445 415.239C132.939 416.091 133.186 417.094 133.186 418.247C133.186 419.406 132.936 420.403 132.436 421.239C131.936 422.068 131.212 422.705 130.263 423.148C129.32 423.591 128.178 423.812 126.837 423.812H122.226V420.847H126.24C126.945 420.847 127.53 420.75 127.996 420.557C128.462 420.364 128.809 420.074 129.036 419.688C129.269 419.301 129.385 418.821 129.385 418.247C129.385 417.668 129.269 417.179 129.036 416.781C128.809 416.384 128.459 416.082 127.988 415.878C127.522 415.668 126.934 415.562 126.223 415.562H123.735V430H120.044ZM129.471 422.057L133.809 430H129.735L125.49 422.057H129.471ZM135.13 415.588V412.545H149.465V415.588H144.121V430H140.473V415.588H135.13ZM151.826 430V412.545H163.382V415.588H155.516V419.747H162.615V422.79H155.516V430H151.826ZM181.904 421.273C181.904 423.176 181.544 424.795 180.822 426.131C180.106 427.466 179.129 428.486 177.89 429.19C176.657 429.889 175.271 430.239 173.731 430.239C172.18 430.239 170.788 429.886 169.555 429.182C168.322 428.477 167.348 427.457 166.632 426.122C165.916 424.787 165.558 423.17 165.558 421.273C165.558 419.369 165.916 417.75 166.632 416.415C167.348 415.08 168.322 414.062 169.555 413.364C170.788 412.659 172.18 412.307 173.731 412.307C175.271 412.307 176.657 412.659 177.89 413.364C179.129 414.062 180.106 415.08 180.822 416.415C181.544 417.75 181.904 419.369 181.904 421.273ZM178.163 421.273C178.163 420.04 177.978 419 177.609 418.153C177.245 417.307 176.731 416.665 176.066 416.227C175.402 415.79 174.623 415.571 173.731 415.571C172.839 415.571 172.061 415.79 171.396 416.227C170.731 416.665 170.214 417.307 169.845 418.153C169.481 419 169.299 420.04 169.299 421.273C169.299 422.506 169.481 423.545 169.845 424.392C170.214 425.239 170.731 425.881 171.396 426.318C172.061 426.756 172.839 426.974 173.731 426.974C174.623 426.974 175.402 426.756 176.066 426.318C176.731 425.881 177.245 425.239 177.609 424.392C177.978 423.545 178.163 422.506 178.163 421.273ZM184.638 430V412.545H191.525C192.843 412.545 193.968 412.781 194.9 413.253C195.837 413.719 196.55 414.381 197.039 415.239C197.533 416.091 197.78 417.094 197.78 418.247C197.78 419.406 197.53 420.403 197.03 421.239C196.53 422.068 195.806 422.705 194.857 423.148C193.914 423.591 192.772 423.812 191.431 423.812H186.82V420.847H190.834C191.539 420.847 192.124 420.75 192.59 420.557C193.056 420.364 193.402 420.074 193.63 419.688C193.863 419.301 193.979 418.821 193.979 418.247C193.979 417.668 193.863 417.179 193.63 416.781C193.402 416.384 193.053 416.082 192.581 415.878C192.115 415.668 191.527 415.562 190.817 415.562H188.328V430H184.638ZM194.064 422.057L198.402 430H194.328L190.084 422.057H194.064ZM206.576 430H200.388V412.545H206.627C208.382 412.545 209.894 412.895 211.161 413.594C212.428 414.287 213.402 415.284 214.084 416.585C214.772 417.886 215.115 419.443 215.115 421.256C215.115 423.074 214.772 424.636 214.084 425.943C213.402 427.25 212.422 428.253 211.144 428.952C209.871 429.651 208.348 430 206.576 430ZM204.078 426.838H206.422C207.513 426.838 208.431 426.645 209.175 426.259C209.925 425.866 210.488 425.261 210.863 424.443C211.243 423.619 211.434 422.557 211.434 421.256C211.434 419.966 211.243 418.912 210.863 418.094C210.488 417.276 209.928 416.673 209.184 416.287C208.439 415.901 207.522 415.707 206.431 415.707H204.078V426.838ZM110.505 459V441.545H122.267V444.588H114.196V448.747H121.662V451.79H114.196V455.957H122.301V459H110.505ZM128.354 441.545L132.573 454.807H132.735L136.962 441.545H141.053L135.036 459H130.28L124.255 441.545H128.354ZM143.154 459V441.545H154.915V444.588H146.844V448.747H154.31V451.79H146.844V455.957H154.949V459H143.154ZM172.449 441.545V459H169.261L161.667 448.014H161.539V459H157.849V441.545H161.088L168.622 452.523H168.775V441.545H172.449ZM174.833 444.588V441.545H189.168V444.588H183.824V459H180.176V444.588H174.833Z" fill="white"/>
<path d="M122.115 374V371.562L127.811 366.289C128.295 365.82 128.701 365.398 129.029 365.023C129.363 364.648 129.615 364.281 129.787 363.922C129.959 363.557 130.045 363.164 130.045 362.742C130.045 362.273 129.938 361.87 129.725 361.531C129.511 361.187 129.219 360.924 128.85 360.742C128.48 360.555 128.061 360.461 127.592 360.461C127.102 360.461 126.675 360.56 126.311 360.758C125.946 360.956 125.665 361.24 125.467 361.609C125.269 361.979 125.17 362.419 125.17 362.93H121.959C121.959 361.883 122.196 360.974 122.67 360.203C123.144 359.432 123.808 358.836 124.662 358.414C125.516 357.992 126.501 357.781 127.615 357.781C128.761 357.781 129.758 357.984 130.607 358.391C131.462 358.792 132.126 359.349 132.6 360.062C133.074 360.776 133.311 361.594 133.311 362.516C133.311 363.12 133.191 363.716 132.951 364.305C132.717 364.893 132.298 365.547 131.693 366.266C131.089 366.979 130.238 367.836 129.139 368.836L126.803 371.125V371.234H133.521V374H122.115ZM142.246 374.352C140.902 374.346 139.746 374.016 138.777 373.359C137.814 372.703 137.072 371.753 136.551 370.508C136.035 369.263 135.78 367.766 135.785 366.016C135.785 364.271 136.043 362.784 136.559 361.555C137.079 360.326 137.822 359.391 138.785 358.75C139.754 358.104 140.908 357.781 142.246 357.781C143.585 357.781 144.736 358.104 145.699 358.75C146.668 359.396 147.413 360.333 147.934 361.562C148.454 362.786 148.712 364.271 148.707 366.016C148.707 367.771 148.447 369.271 147.926 370.516C147.41 371.76 146.671 372.711 145.707 373.367C144.743 374.023 143.59 374.352 142.246 374.352ZM142.246 371.547C143.163 371.547 143.895 371.086 144.441 370.164C144.988 369.242 145.259 367.859 145.254 366.016C145.254 364.802 145.129 363.792 144.879 362.984C144.634 362.177 144.285 361.57 143.832 361.164C143.384 360.758 142.855 360.555 142.246 360.555C141.335 360.555 140.605 361.01 140.059 361.922C139.512 362.833 139.236 364.198 139.23 366.016C139.23 367.245 139.353 368.271 139.598 369.094C139.848 369.911 140.199 370.526 140.652 370.937C141.105 371.344 141.637 371.547 142.246 371.547ZM151.119 374V371.562L156.814 366.289C157.299 365.82 157.705 365.398 158.033 365.023C158.367 364.648 158.619 364.281 158.791 363.922C158.963 363.557 159.049 363.164 159.049 362.742C159.049 362.273 158.942 361.87 158.729 361.531C158.515 361.187 158.223 360.924 157.854 360.742C157.484 360.555 157.064 360.461 156.596 360.461C156.106 360.461 155.679 360.56 155.314 360.758C154.95 360.956 154.669 361.24 154.471 361.609C154.273 361.979 154.174 362.419 154.174 362.93H150.963C150.963 361.883 151.2 360.974 151.674 360.203C152.148 359.432 152.812 358.836 153.666 358.414C154.52 357.992 155.505 357.781 156.619 357.781C157.765 357.781 158.762 357.984 159.611 358.391C160.465 358.792 161.13 359.349 161.604 360.062C162.077 360.776 162.314 361.594 162.314 362.516C162.314 363.12 162.195 363.716 161.955 364.305C161.721 364.893 161.301 365.547 160.697 366.266C160.093 366.979 159.242 367.836 158.143 368.836L155.807 371.125V371.234H162.525V374H151.119ZM170.891 374.219C169.724 374.219 168.685 374.018 167.773 373.617C166.867 373.211 166.151 372.654 165.625 371.945C165.104 371.232 164.836 370.409 164.82 369.477H168.227C168.247 369.867 168.375 370.211 168.609 370.508C168.849 370.799 169.167 371.026 169.562 371.188C169.958 371.349 170.404 371.43 170.898 371.43C171.414 371.43 171.87 371.339 172.266 371.156C172.661 370.974 172.971 370.721 173.195 370.398C173.419 370.076 173.531 369.703 173.531 369.281C173.531 368.854 173.411 368.477 173.172 368.148C172.938 367.815 172.599 367.555 172.156 367.367C171.719 367.18 171.198 367.086 170.594 367.086H169.102V364.602H170.594C171.104 364.602 171.555 364.513 171.945 364.336C172.341 364.159 172.648 363.914 172.867 363.602C173.086 363.284 173.195 362.914 173.195 362.492C173.195 362.091 173.099 361.74 172.906 361.437C172.719 361.13 172.453 360.891 172.109 360.719C171.771 360.547 171.375 360.461 170.922 360.461C170.464 360.461 170.044 360.544 169.664 360.711C169.284 360.872 168.979 361.104 168.75 361.406C168.521 361.708 168.398 362.062 168.383 362.469H165.141C165.156 361.547 165.419 360.734 165.93 360.031C166.44 359.328 167.128 358.779 167.992 358.383C168.862 357.982 169.844 357.781 170.938 357.781C172.042 357.781 173.008 357.982 173.836 358.383C174.664 358.784 175.307 359.326 175.766 360.008C176.229 360.685 176.458 361.445 176.453 362.289C176.458 363.185 176.18 363.932 175.617 364.531C175.06 365.13 174.333 365.51 173.438 365.672V365.797C174.615 365.948 175.51 366.357 176.125 367.023C176.745 367.685 177.052 368.513 177.047 369.508C177.052 370.419 176.789 371.229 176.258 371.938C175.732 372.646 175.005 373.203 174.078 373.609C173.151 374.016 172.089 374.219 170.891 374.219Z" fill="white"/>
<g clip-path="url(#clip0_0_1)">
<path d="M147.931 63.7388C150.307 63.7388 152.614 63.9565 154.817 64.3594L160.056 58.8858C156.392 57.6134 152.279 56.9002 147.931 56.9002C140.539 56.9002 133.828 58.9665 128.851 62.3316L133.417 66.6681C137.639 64.8136 142.607 63.7388 147.931 63.7388Z" fill="#959596"/>
<path d="M147.931 56.9002C152.279 56.9002 156.392 57.6134 160.056 58.8858L165.753 52.9393C160.437 50.8379 154.374 49.6446 147.931 49.6446C138.327 49.6446 129.564 52.2947 122.876 56.6548L128.851 62.3316C133.828 58.9665 140.539 56.9002 147.931 56.9002Z" fill="white"/>
<path d="M120.578 80.1673C121.057 78.204 121.941 76.343 123.161 74.622L120.866 72.2942C120.412 73.7245 120.16 75.214 120.16 76.7476C120.16 77.9132 120.305 79.0546 120.578 80.1673Z" fill="#959596"/>
<path d="M103.62 93.034L102.657 98.0419L112.243 93.9039C111.638 92.6277 111.519 90.9639 111.17 89.6109L103.62 93.034Z" fill="#959596"/>
<path d="M96.8741 38.5697L83 114.749L89.562 115.284L103.3 37.9983L96.8741 38.5697Z" fill="#959596"/>
<path d="M143.53 82.4073V76.2466L133.452 66.6681L128.888 62.3316L122.911 56.6548L103.277 37.9969L89.5343 115.284L118.613 102.467C115.718 99.903 113.666 97.1691 112.141 93.9475L102.676 98.0185L103.625 93.0362L109.759 60.9819L110.271 58.2916L115.335 63.4042L121.852 69.9837L124.649 72.8127L136.151 82.7476L124.986 87.878C127.886 90.7812 131.321 93.3401 135.952 94.7853L149.882 88.5139L143.53 82.4073Z" fill="#ED1C24"/>
<path d="M175.283 80.1673C175.553 79.0546 175.702 77.9132 175.702 76.7476C175.702 73.3074 174.447 70.0593 172.288 67.2392L168.981 70.6726C172.158 73.3228 174.414 76.5884 175.283 80.1673Z" fill="#959596"/>
<path d="M181.5 112.771L173.662 105.221C172.408 106.079 171.069 106.875 169.666 107.606L181.5 119L217.995 80.8878L217.954 74.7164L181.5 112.771Z" fill="#959596"/>
<path d="M154.907 87.175L148.452 80.9591L143.512 76.2303L143.495 82.4073L150.44 89.0957L157.078 95.4891C158.765 95.067 160.379 94.5364 161.896 93.9039L154.907 87.175Z" fill="#959596"/>
<path d="M180.283 52.7087L175.087 58.132L169.357 64.1191L165.45 68.1962L158.047 75.9256L161.148 78.9103L169.025 70.6888L172.318 67.2495L178.352 60.9508L180.283 58.9331L200.35 78.2215L203.454 74.99L180.283 52.7087Z" fill="#959596"/>
<path d="M178.352 60.9508L172.318 67.2495C174.478 70.0699 175.702 73.3074 175.702 76.7476C175.702 77.9132 175.553 79.0546 175.283 80.1673C174.579 83.0625 172.996 85.7439 170.737 88.0649C168.427 90.4398 165.408 92.4399 161.896 93.9039C160.379 94.5364 158.765 95.067 157.078 95.4891C154.216 96.2011 151.137 96.5937 147.931 96.5937C143.982 96.5937 140.231 96.0048 136.831 94.9428C132.199 93.495 128.227 91.1744 125.325 88.2685C124.266 87.2099 123.352 86.0704 122.596 84.868C121.667 83.3891 120.98 81.8148 120.578 80.1673C120.305 79.0546 120.16 77.9132 120.16 76.7476C120.16 75.214 120.412 73.7245 120.866 72.2941L113.937 65.2605C111.399 69.034 109.967 73.2861 109.967 77.7891C109.967 78.947 110.074 80.0884 110.257 81.2088C110.701 83.9319 111.675 86.5292 113.091 88.9536C113.801 90.1722 114.625 91.3459 115.554 92.4677C117.992 95.4157 121.135 98.0065 124.82 100.107C131.218 103.755 139.229 105.932 147.931 105.932C154.02 105.932 159.767 104.868 164.864 102.98C166.412 102.409 167.895 101.761 169.315 101.043C172.601 99.3737 175.517 97.3364 177.95 95.0059C182.034 91.0954 184.761 86.3682 185.605 81.2088C185.789 80.0884 185.893 78.947 185.893 77.7891C185.893 71.4742 183.089 65.6441 178.352 60.9508Z" fill="white"/>
<path d="M154.875 87.2206L161.84 93.9282C165.347 92.4612 168.392 90.4872 170.707 88.1106L161.157 78.9159L158.055 75.9328L165.419 68.2435L169.322 64.1652L175.054 58.1777L180.251 52.7548L203.367 75.007L200.264 78.25L181.326 98.0202C179.331 100.762 176.744 103.195 173.685 105.295L181.467 112.821L217.962 74.7125L179.954 38.1212L165.719 52.9854L160.022 58.9331L154.78 64.4068L143.512 76.2303L154.875 87.2206Z" fill="#1C63B7"/>
<path d="M122.754 85.0579C122.754 85.0579 122.936 85.3588 122.957 85.3917C123.514 86.2808 124.28 87.0935 125.005 87.9057L136.359 82.6451L110.268 58.2831L109.556 62.0511L130.026 82.3719L122.754 85.0579Z" fill="#959596"/>
<path d="M185.893 77.7891C185.893 78.947 185.789 80.0884 185.605 81.2089C184.761 86.3682 182.034 91.0954 177.95 95.006C175.517 97.3364 172.601 99.3737 169.315 101.043C167.895 101.761 166.412 102.409 164.864 102.98C159.767 104.868 154.02 105.932 147.931 105.932C139.229 105.932 131.218 103.755 124.82 100.107C121.135 98.0065 117.992 95.4157 115.554 92.4677C114.625 91.3459 113.801 90.1722 113.091 88.9536C111.675 86.5292 110.701 83.9319 110.257 81.2089C110.074 80.0884 109.967 78.947 109.967 77.7891C109.967 77.4242 109.995 77.0648 110.013 76.7058C110.009 76.6866 110.002 76.6584 110 76.6405C109.815 77.7627 109.967 83.4731 109.967 84.6298C109.967 86.4665 110.212 88.2578 110.664 89.9963C111.018 91.3536 111.502 92.6712 112.107 93.9475C113.631 97.1691 115.917 100.122 118.814 102.688C125.782 108.849 136.238 112.771 147.931 112.771C156.045 112.771 163.557 110.879 169.728 107.666C171.129 106.935 172.463 106.138 173.714 105.28C176.774 103.181 179.364 100.716 181.358 97.9745C184.25 94.0073 185.893 89.4606 185.893 84.6298C185.893 83.6119 185.981 78.7824 185.883 76.8655C185.866 76.6025 185.893 77.4562 185.893 77.7891Z" fill="#959596"/>
</g>
<defs>
<clipPath id="clip0_0_1">
<rect width="135" height="81" fill="white" transform="translate(83 38)"/>
</clipPath>
</defs>
</svg>
